<svg width="446" height="446" viewBox="0 0 446 446" fill="none" xmlns="http://www.w3.org/2000/svg">
<path fill-rule="evenodd" clip-rule="evenodd" d="M349.128 96.9586C279.459 27.1471 166.541 27.1471 96.8715 96.9586C25.9844 167.99 27.1956 283.893 100.51 353.403C168.015 417.399 277.985 417.399 345.49 353.403C418.805 283.893 420.016 167.99 349.128 96.9586ZM380.697 65.4537C293.603 -21.8179 152.397 -21.8179 65.3025 65.4537C-23.2505 154.187 -21.7415 298.956 69.8248 385.77L69.8255 385.77C154.536 466.077 291.464 466.077 376.174 385.77L376.175 385.77C467.741 298.956 469.25 154.187 380.697 65.4537Z" fill="white"/>
<path d="M308.23 285.11C308.23 289.009 306.28 290.959 302.381 290.959H291.171C287.434 314.03 277.848 329.465 262.413 337.263C259.326 338.888 256.727 338.076 254.615 334.826L244.135 318.01C242.348 315.086 242.917 312.486 245.841 310.212C250.228 306.637 254.208 301.52 257.783 294.858C261.195 288.197 262.901 281.536 262.901 274.874C262.901 259.927 258.27 252.453 249.009 252.453C246.572 252.453 244.46 253.103 242.673 254.403C240.886 255.54 239.261 257.49 237.799 260.252C236.336 262.851 235.28 265.045 234.631 266.832C233.981 268.619 233.087 271.462 231.95 275.362C230.812 279.261 230.081 281.617 229.756 282.429C229.594 282.917 229.35 283.729 229.025 284.866C227.726 289.091 226.588 292.584 225.613 295.346C224.639 298.108 222.933 302.007 220.496 307.044C217.896 312.08 215.215 316.142 212.453 319.229C209.529 322.316 205.711 325.159 200.999 327.759C196.287 330.196 191.088 331.414 185.402 331.414C174.029 331.414 164.849 327.678 157.863 320.204C150.877 312.73 146.327 302.982 144.215 290.959H133.248C129.349 290.959 127.399 289.009 127.399 285.11V267.319C127.399 263.42 129.349 261.47 133.248 261.47H144.215C145.84 252.047 148.846 243.436 153.232 235.637C157.619 227.839 162.737 221.909 168.586 217.847C171.673 215.735 174.354 216.385 176.628 219.796L186.62 235.15C188.407 237.75 187.92 240.43 185.158 243.192C181.421 246.767 178.172 251.641 175.41 257.815C172.485 263.826 171.023 269.838 171.023 275.849C171.023 288.847 175.166 295.346 183.452 295.346C185.402 295.346 187.27 294.858 189.057 293.883C190.682 292.746 192.063 291.609 193.2 290.472C194.338 289.172 195.556 287.303 196.856 284.866C197.993 282.267 198.806 280.236 199.293 278.774C199.78 277.311 200.512 274.956 201.486 271.706C202.461 268.457 203.111 266.426 203.436 265.613C203.436 265.451 203.923 263.907 204.898 260.983C205.873 258.059 206.604 255.946 207.092 254.647C207.579 253.347 208.473 251.072 209.772 247.823C210.91 244.573 212.128 242.055 213.428 240.268C214.565 238.481 216.028 236.206 217.815 233.444C219.439 230.52 221.308 228.245 223.42 226.62C225.37 224.996 227.563 223.371 230 221.746C232.437 219.959 235.118 218.659 238.042 217.847C240.967 217.034 244.135 216.628 247.547 216.628C259.895 216.628 269.887 220.609 277.523 228.57C284.997 236.531 289.708 247.498 291.658 261.47H302.381C306.28 261.47 308.23 263.42 308.23 267.319V285.11Z" fill="white"/>
</svg>
